# xmcd CD database file
#
# Track frame offsets:
#	150
#	20671
#	39672
#	60078
#
# Disc length: 1050 seconds
#
# Revision: 1
# Processed by: cddbd v1.5.1PL2 Copyright (c) Steve Scherf et al.
# Submitted via: CDex 1.51
#
DISCID=28041804
DTITLE=SOULHEAD - Pray - XXX feat. 倖田來未
DYEAR=2005
DGENRE=General R&B
TTITLE0=Pray
TTITLE1=SOULHEAD Feat. 倖田來未 - XXX
TTITLE2=Pray -Instrumental-
TTITLE3=SOULHEAD Feat. 倖田來未 - XXX -Instrumental-
EXTD=YEAR: 2005
EXTT0=
EXTT1=
EXTT2=
EXTT3=
PLAYORDER=
